{
  "accessors": [
    {
      "bufferView": 2,
      "componentType": 5126,
      "count": 2335,
      "max": [
        808.4205932617188,
        208.75111389160156,
        1709.3165283203125
      ],
      "min": [
        -830.4255981445313,
        0.05223400145769119,
        -1713.5821533203125
      ],
      "type": "VEC3"
    },
    {
      "bufferView": 2,
      "byteOffset": 28020,
      "componentType": 5126,
      "count": 2335,
      "max": [
        1.0,
        1.0,
        1.0
      ],
      "min": [
        -1.0,
        -0.9999960660934448,
        -1.0
      ],
      "type": "VEC3"
    },
    {
      "bufferView": 1,
      "componentType": 5126,
      "count": 2335,
      "max": [
        0.9865998029708862,
        0.9958531260490417
      ],
      "min": [
        0.009743109345436096,
        0.004557447507977486
      ],
      "type": "VEC2"
    },
    {
      "bufferView": 1,
      "byteOffset": 18680,
      "componentType": 5126,
      "count": 2335,
      "max": [
        0.9865998029708862,
        0.9958531260490417
      ],
      "min": [
        0.009743109345436096,
        0.004557447507977486
      ],
      "type": "VEC2"
    },
    {
      "bufferView": 0,
      "componentType": 5125,
      "count": 4257,
      "type": "SCALAR"
    }
  ],
  "asset": {
    "extras": {
      "author": "ajmalsaleem88 (https://sketchfab.com/ajmalsaleem88)",
      "license": "CC-BY-4.0 (http://creativecommons.org/licenses/by/4.0/)",
      "source": "https://sketchfab.com/3d-models/louvre-museum-8d11ca2fb25343cab600fd88720416c6",
      "title": "Louvre_Museum"
    },
    "generator": "Sketchfab-12.65.0",
    "version": "2.0"
  },
  "bufferViews": [
    {
      "buffer": 0,
      "byteLength": 17028,
      "name": "floatBufferViews",
      "target": 34963
    },
    {
      "buffer": 0,
      "byteLength": 37360,
      "byteOffset": 17028,
      "byteStride": 8,
      "name": "floatBufferViews",
      "target": 34962
    },
    {
      "buffer": 0,
      "byteLength": 56040,
      "byteOffset": 54388,
      "byteStride": 12,
      "name": "floatBufferViews",
      "target": 34962
    }
  ],
  "buffers": [
    {
      "byteLength": 110428,
      "uri": "scene.bin"
    }
  ],
  "images": [
    {
      "uri": "textures/Louvre_Museum_2Louvre_Museumphong2_baseColor.png"
    }
  ],
  "materials": [
    {
      "doubleSided": true,
      "name": "Louvre_Museum_2Louvre_Museumphong2",
      "pbrMetallicRoughness": {
        "baseColorTexture": {
          "index": 0
        },
        "metallicFactor": 0.0,
        "roughnessFactor": 0.0
      }
    }
  ],
  "meshes": [
    {
      "name": "Louvre_Museum_2:polySurface12_Louvre_Museum_2:Louvre_Museum:phong2_0",
      "primitives": [
        {
          "attributes": {
            "NORMAL": 1,
            "POSITION": 0,
            "TEXCOORD_0": 2,
            "TEXCOORD_1": 3
          },
          "indices": 4,
          "material": 0,
          "mode": 4
        }
      ]
    }
  ],
  "nodes": [
    {
      "children": [
        1
      ],
      "matrix": [
        7.192004203796387,
        0.0,
        0.0,
        0.0,
        0.0,
        4.4038317041254397e-16,
        7.192004203796387,
        0.0,
        0.0,
        -7.192004203796387,
        4.4038317041254397e-16,
        0.0,
        0.0,
        -2.08803391456604,
        0.04253662005066825,
        1.0
      ],
      "name": "Sketchfab_model"
    },
    {
      "children": [
        2
      ],
      "matrix": [
        0.009999999776482582,
        0.0,
        0.0,
        0.0,
        0.0,
        -0.009999999776482582,
        0.0,
        0.0,
        0.0,
        0.0,
        -0.009999999776482582,
        0.0,
        0.0,
        0.0,
        0.0,
        1.0
      ],
      "name": "2bd89d56f3f643eba9d8f4d632b752da.fbx"
    },
    {
      "children": [
        3
      ],
      "name": "RootNode"
    },
    {
      "children": [
        4
      ],
      "matrix": [
        1.0,
        0.0,
        0.0,
        0.0,
        0.0,
        2.220446049250313e-16,
        1.0,
        0.0,
        0.0,
        -1.0,
        2.220446049250313e-16,
        0.0,
        0.0,
        0.0,
        0.0,
        1.0
      ],
      "name": "Louvre_Museum_2:polySurface12"
    },
    {
      "mesh": 0,
      "name": "Louvre_Museum_2:polySurface12_Louvre_Museum_2:Louvre_Museum:phong2_0"
    }
  ],
  "samplers": [
    {
      "magFilter": 9729,
      "minFilter": 9987,
      "wrapS": 10497,
      "wrapT": 10497
    }
  ],
  "scene": 0,
  "scenes": [
    {
      "name": "Sketchfab_Scene",
      "nodes": [
        0
      ]
    }
  ],
  "textures": [
    {
      "sampler": 0,
      "source": 0
    }
  ]
}
